<?xml version="1.0" encoding="utf-8"?>
<!-- Generator: Adobe Illustrator 27.9.3, SVG Export Plug-In . SVG Version: 9.03 Build 53313)  -->
<svg version="1.1" id="Layer_1" xmlns="http://www.w3.org/2000/svg" xmlns:xlink="http://www.w3.org/1999/xlink" x="0px" y="0px"
	 viewBox="0 0 1500 500" style="enable-background:new 0 0 1500 500;" xml:space="preserve">
<style type="text/css">
	.st0{fill:none;stroke:#27368C;stroke-width:15;stroke-miterlimit:10;}
	.st1{fill:none;stroke:#27368C;stroke-width:8;stroke-linecap:round;stroke-linejoin:round;stroke-miterlimit:10;}
	.st2{fill:none;stroke:#27368C;stroke-width:4;stroke-linecap:round;stroke-linejoin:round;stroke-miterlimit:10;}
	.st3{fill:#27368C;stroke:#27368C;stroke-miterlimit:10;}
	.st4{fill:none;}
	.st5{fill:#27368C;}
	.st6{font-family:'KLOREDEMO';}
	.st7{font-size:450px;}
</style>
<path class="st0" d="M62.18,392.88V100.03c0-16.98,13.76-30.74,30.74-30.74h292.85c16.98,0,30.74,13.76,30.74,30.74v292.85
	c0,16.98-13.76,30.74-30.74,30.74H92.92C75.95,423.62,62.18,409.86,62.18,392.88z"/>
<path class="st1" d="M414.1,164.75c-30.34-4.48-60.62,8.94-85.89,26.32c-25.27,17.39-47.58,39.02-74.08,54.47
	c-6.28,3.66-12.89,7.06-17.8,12.42c-5.7,6.23-8.62,14.92-7.83,23.33c0.79,8.41,5.27,16.41,12.02,21.47
	c5.68,4.25,12.63,6.38,19.46,8.31c22.13,6.26,44.85,11.43,65.19,22.18c15.06,7.96,28.41,18.77,42.8,27.88
	c14.4,9.11,30.49,16.68,47.52,16.96"/>
<path class="st1" d="M412.21,206.23c-35.25,1.16-70.05,13.56-98.1,34.96c-8.78,6.7-17.14,14.38-27.49,18.22
	c-8.02,2.97-17.85,4.15-22.3,11.46c-3.46,5.68-1.7,13.94,3.77,17.71c5.19,3.58,12.04,3.01,18.32,3.59
	c17.7,1.63,32.64,13.1,48.11,21.86c23.74,13.44,50.75,21.06,78.01,22.03"/>
<path class="st1" d="M376.74,211.95c-6.43,10.15-12.17,20.95-14.72,32.69c-2.55,11.74-1.63,24.6,4.59,34.88
	c8.27,13.68,24.24,20.62,39.72,24.59c3.36,0.86,6.85,1.63,10.29,1.12"/>
<path class="st1" d="M412.81,283.97c-10.91-2.08-20.29-10.74-23.24-21.44c-2.93-10.62,0.21-22.03,5.07-31.92
	c3.86-7.86,8.81-15.19,14.67-21.71"/>
<path class="st1" d="M344.13,177.56c-23.16-20.53-46.81-41.67-61.41-68.96c-6.58-12.3-11.21-26.93-6.6-40.09"/>
<path class="st1" d="M218.6,70.18c6.89-1.1,13.95,0.45,20.51,2.81c20.08,7.22,37.18,22.37,46.78,41.42"/>
<path class="st1" d="M242.46,249.5c-23.8-9.48-47.34-19.81-69.48-32.71c-13.12-7.65-25.94-16.39-35.38-28.29
	c-9.44-11.9-15.18-27.45-12.51-42.41c2.24-12.54,9.99-23.34,18.25-33.03c8.26-9.69,17.36-18.91,23.2-30.22
	c2.35-4.55,4.17-9.44,7.29-13.5"/>
<path class="st1" d="M146.56,198.96c-13.53-3.25-28.82,3.46-35.59,15.61c-6.36,11.42-3.96,24.56-3.73,37.63
	c0.25,13.4-0.65,26.81-2.69,40.06c-1.71,11.12-4.22,22.23-3.92,33.47c0.4,15.24,6.03,30.05,14.41,42.78
	c2.95,4.47,6.28,8.76,10.48,12.08c5.91,4.67,13.25,7.18,20.63,8.72c27.41,5.74,56.36-1.06,81.09-14.2s45.74-32.28,65.26-52.36"/>
<path class="st1" d="M201.71,385.79c-11.96,7.79-21.76,20.28-25.43,34.07"/>
<path class="st1" d="M410.83,280.74c-2.42-22.71-2.14-45.7,0.83-68.35c-4.76,7.35-6.38,16.27-7.14,24.99
	c-1.23,14.1-0.44,28.37,2.34,42.25c-5.96-7.16-7.36-17.04-7.46-26.36c-0.1-10.26,1.11-20.53,3.6-30.49
	c-6.55,13.84-8.69,29.73-6.04,44.81"/>
<path class="st2" d="M287.26,280.8c1.57-1.1,2.15-3.42,1.27-5.12c-0.49-0.95-1.35-1.67-2.25-2.25c-2-1.29-4.39-2.05-6.76-1.82
	c-2.37,0.23-4.67,1.52-5.85,3.59c-0.62,1.08-0.91,2.39-0.58,3.6c0.29,1.05,1.02,1.94,1.86,2.64c1.81,1.5,4.22,2.26,6.57,2.06
	S285.82,281.8,287.26,280.8z"/>
<path class="st2" d="M305.09,250.85c-6.21,6.26-5.97,16.89-1.7,24.6s11.68,13.13,19.04,17.98c6.45,4.25,13.06,8.26,19.66,12.28
	c7.51,4.57,15.09,9.17,23.39,12.07c6.85,2.4,14.04,3.59,21.2,4.77c9.11,1.5,18.21,3.01,27.32,4.51"/>
<path class="st2" d="M361.94,251.34c8.29-0.81,16.64-1,24.95-0.56"/>
<path class="st2" d="M387,245.67c-2.59-0.49-5.18-0.97-7.76-1.46"/>
<path class="st2" d="M373.56,243.35c-3.11-0.62-6.28-0.97-9.45-1.05"/>
<path class="st2" d="M387.73,241.34c-2.91-1-5.82-1.99-8.73-2.99"/>
<path class="st2" d="M372.13,256.95c4.61-0.19,9.22-0.13,13.82,0.17"/>
<path class="st2" d="M374.01,221.91c6.2,2.41,12.32,5.05,18.32,7.91"/>
<path class="st2" d="M387.31,220.27c2.65,1.43,5.3,2.87,7.95,4.3"/>
<path class="st2" d="M387.12,211.29c4.02,2.4,8.04,4.79,12.06,7.19"/>
<path class="st2" d="M389.08,263.6c-6.63,4.04-13.54,7.63-20.65,10.75"/>
<path class="st2" d="M390.8,269.18c-2.12,1.51-4.24,3.03-6.35,4.54"/>
<path class="st2" d="M379.6,276.57c-1.12,0.76-2.24,1.51-3.35,2.27"/>
<path class="st2" d="M394.99,278.27c-1.23,1.26-2.46,2.53-3.69,3.79"/>
<path class="st2" d="M400.39,281.09c-1.75,3.31-4.02,6.3-6.29,9.28c-1.37,1.79-2.73,3.59-4.1,5.38"/>
<path class="st2" d="M406.22,283.99c-0.91,1.96-1.98,3.85-3.19,5.65"/>
<path class="st2" d="M399.57,294.64c-0.85,1.54-1.69,3.07-2.54,4.61"/>
<path class="st2" d="M279.17,302.5c-4.83-1.04-9.72-2.12-14.16-4.28s-8.48-5.54-10.47-10.07c-1.21-2.74-1.61-5.78-1.64-8.78
	c-0.05-5.7,1.32-11.55,4.74-16.11c1.31-1.75,2.9-3.27,4.54-4.71c5.36-4.73,11.57-8.82,18.59-10.15"/>
<path class="st2" d="M329.34,218.95c24.52-17.04,54.34-26.33,84.2-26.22"/>
<path class="st2" d="M355.11,172.15c-5.41-6.48-10.49-13.23-15.22-20.23"/>
<path class="st2" d="M363.62,169.51c-8.28-12.38-17.01-24.47-26.16-36.22"/>
<path class="st2" d="M332.66,127.07c-2.55-4.31-5.11-8.62-7.66-12.93"/>
<path class="st2" d="M355.2,142.97c5.69,7.39,10.81,15.2,15.32,23.36"/>
<path class="st2" d="M346.58,130.69c1.07,1.46,2.14,2.91,3.21,4.37"/>
<path class="st2" d="M345.52,90.25c11.89,24.4,21.99,49.67,30.21,75.54"/>
<path class="st2" d="M368.53,118.39c5.01,15.01,9.41,30.23,13.2,45.6"/>
<path class="st2" d="M387.88,162.37c-0.77-7.68-1.69-15.34-2.77-22.98"/>
<path class="st2" d="M384.22,134.24c-0.26-1.25-0.46-2.52-0.6-3.79"/>
<path class="st2" d="M394.14,161.18c-1.04-19.96-6.35-39.64-5.86-59.63"/>
<path class="st2" d="M399.67,161.72c-0.39-6.28-0.67-12.56-0.85-18.84"/>
<path class="st2" d="M398.43,136.81c-0.06-5.38-0.22-10.76-0.46-16.13"/>
<path class="st2" d="M345.24,349.57c-12.06,18.35-24.29,36.58-36.7,54.7"/>
<path class="st2" d="M351.48,352.56c-3.14,5.73-6.5,11.35-10.06,16.83"/>
<path class="st2" d="M337.11,375.59c-1.77,2.99-3.54,5.98-5.3,8.97"/>
<path class="st2" d="M359.49,357.91c-7.14,14.34-14.88,28.38-23.2,42.06"/>
<path class="st2" d="M367.25,362.32c-2.55,4.71-5.1,9.42-7.65,14.13"/>
<path class="st2" d="M377.79,368.42c-2.67,8.27-6.1,16.3-10.24,23.95"/>
<path class="st2" d="M363.54,400.69c-2.77,7.2-6.22,14.14-10.3,20.69"/>
<path class="st2" d="M385.19,372.7c-3.71,13.55-9.3,26.59-16.58,38.61"/>
<path class="st2" d="M393.77,375.91c-1.37,3.66-2.74,7.32-4.11,10.98"/>
<path class="st2" d="M401.03,378.8c-1.44,11.72-4.82,23.21-9.97,33.84"/>
<path class="st2" d="M408.22,379.47c0.19,4.83-0.47,9.7-1.95,14.3"/>
<path class="st2" d="M404.29,399.98c-0.45,1.6-0.89,3.21-1.34,4.81"/>
<path class="st2" d="M339.65,345.32c-2.96,4.38-5.92,8.75-8.87,13.13"/>
<path class="st2" d="M334.94,340.46c-12.12,17.48-24.81,34.56-38.04,51.21"/>
<path class="st2" d="M292.93,397.76c-2.1,2.62-4.19,5.24-6.29,7.86"/>
<path class="st2" d="M327.99,339.19c-3.31,4.03-6.63,8.05-9.94,12.08"/>
<path class="st2" d="M313.59,357.35c-2.65,3.13-5.31,6.25-7.96,9.38"/>
<path class="st2" d="M319.61,333.85c-14.81,15.14-28.93,30.96-42.28,47.4"/>
<path class="st2" d="M313.76,330.36c-9.65,6.91-18.31,15.21-25.62,24.56"/>
<path class="st2" d="M283.62,361.35c-1.61,1.61-3.22,3.23-4.84,4.84"/>
<path class="st2" d="M303.78,326.48c-16.27,13.57-31.57,28.3-45.75,44.04"/>
<path class="st2" d="M210.06,143.38c21.25,29.72,46.74,56.4,75.45,78.99"/>
<path class="st2" d="M238,165.3c7.85,9.57,16.05,18.85,24.59,27.81"/>
<path class="st2" d="M269.46,199.42c7.18,6.48,14.37,12.96,21.55,19.45"/>
<path class="st2" d="M260.8,175.68c10.55,12.55,21.81,24.5,33.7,35.79"/>
<path class="st2" d="M287.11,191.58c4.95,4.97,9.9,9.94,14.85,14.91"/>
<path class="st2" d="M282.62,186.61c-1.16-1.34-2.32-2.67-3.48-4.01"/>
<path class="st2" d="M309.85,202.68c-14.01-15.78-27.69-31.86-41.04-48.2"/>
<path class="st2" d="M314.72,198.74c-7.77-10.41-15.54-20.83-23.31-31.24"/>
<path class="st2" d="M263.38,146.69c-1.18-1.87-2.5-3.65-3.94-5.33"/>
<path class="st2" d="M321.98,193.4c-11.05-20.13-24.2-39.09-39.19-56.48"/>
<path class="st2" d="M326.2,188.06c-2.34-7.19-5.68-14.06-9.89-20.35"/>
<path class="st2" d="M311.9,161.28c-1.21-1.94-2.42-3.87-3.63-5.81"/>
<path class="st2" d="M302.59,149.54c-0.87-1.59-1.83-3.12-2.89-4.58"/>
<path class="st2" d="M240.6,226.43"/>
<path class="st2" d="M332.6,185.71c-2.52-9.66-6.56-18.91-11.94-27.32"/>
<path class="st2" d="M277.56,226.31c-6.96-4.15-12.98-9.68-18.95-15.16c-2.92-2.69-5.84-5.37-8.77-8.06
	c-6.48-5.96-12.97-11.92-18.89-18.43"/>
<path class="st2" d="M272.4,231.97c-7.33-4.09-14.16-9.07-20.3-14.8"/>
<path class="st2" d="M246.97,212.13c-2.61-1.87-4.98-4.09-7.02-6.57"/>
<path class="st2" d="M263.78,236.28c-7.47-2.76-13.95-7.62-20.22-12.53c-5.69-4.46-11.31-9.01-16.86-13.65
	c-7.66-6.42-15.22-13.04-21.63-20.71"/>
<path class="st2" d="M199.55,183.07c-1.25-0.99-2.41-2.07-3.49-3.24"/>
<path class="st2" d="M257.01,241.11c-6.92-3.3-13.48-7.34-19.54-12.03"/>
<path class="st2" d="M230.01,222.34c-4.39-2.7-8.35-6.1-11.69-10.03"/>
<path class="st2" d="M249.38,245.77c-17.07-9.22-33.28-20.02-48.38-32.2"/>
<path class="st2" d="M146.81,301.31c27.34-1.06,54.62-3.59,81.68-7.58"/>
<path class="st2" d="M162.93,289.9c11.41-0.7,22.83-1.4,34.24-2.1"/>
<path class="st2" d="M205.24,287.02c6.7-0.78,13.41-1.36,20.14-1.74"/>
<path class="st2" d="M177.66,309.92c18.56-1.68,36.95-5.19,54.81-10.46"/>
<path class="st2" d="M257.45,339.99c8.37-5.96,16.21-12.65,23.4-19.99"/>
<path class="st2" d="M222.76,349.03c16.03-9.34,31.34-19.9,45.76-31.57"/>
<path class="st2" d="M248.02,323.76c4.41-2.81,8.69-5.84,12.8-9.07"/>
<path class="st2" d="M242.89,327.14c-2.32,1.56-4.64,3.12-6.95,4.68"/>
<path class="st2" d="M250.62,311c-11.82,7.35-24.08,14-36.7,19.89"/>
<path class="st2" d="M240.14,305.84c-15.77,8.13-31.98,15.42-48.52,21.82"/>
<path class="st2" d="M185.07,330.04c-2.38,0.87-4.76,1.73-7.14,2.6"/>
<path class="st2" d="M226.45,278.15c-12-1.1-24.05-1.65-36.1-1.66"/>
<path class="st2" d="M227.77,272.06c-20.13-5.44-40.9-8.5-61.74-9.11"/>
<path class="st2" d="M228.17,266.56c-4.5-2.65-9.37-4.67-14.43-5.99"/>
<path class="st2" d="M206.61,258.27c-8.16-2.13-16.32-4.26-24.47-6.39"/>
<path class="st2" d="M231.91,260.33c-23.35-12.89-50.1-17.93-76.33-22.79"/>
<path class="st2" d="M148.88,235.71c-1.2-0.09-2.39-0.18-3.59-0.28"/>
<path class="st2" d="M233.9,255.31c-2.57-1.54-5.22-2.94-7.95-4.18"/>
<path class="st3" d="M385.21,379.97c0.47-0.89,0.94-1.78,1.41-2.67"/>
<path class="st3" d="M329.34,311.96c-0.43,2.18-0.8,4.38-1.09,6.59c-0.1,0.72,0.02,1.72,0.74,1.78c0.32,0.03,0.62-0.17,0.88-0.36
	c1.61-1.19,3.14-2.48,4.58-3.86c0.07-0.07,0.15-0.15,0.14-0.25c-0.01-0.09-0.08-0.16-0.16-0.21
	C332.69,314.28,330.96,312.92,329.34,311.96z"/>
<path class="st3" d="M314.46,303.89c-0.4,1.14-0.69,2.31-0.85,3.51c-0.08,0.58-0.02,1.33,0.53,1.52c1.08-0.88,2.12-1.83,3.1-2.83
	c0.12-0.12,0.25-0.26,0.25-0.43c0.01-0.24-0.22-0.41-0.42-0.54C316.18,304.56,315.25,304.07,314.46,303.89z"/>
<path class="st3" d="M338.64,318.34c-0.36,2.61-0.56,5.24-0.62,7.87c-0.01,0.49,0.02,1.05,0.41,1.35c0.57,0.43,1.36-0.06,1.89-0.53
	c1.93-1.73,3.77-3.57,5.49-5.51c0.09-0.1,0.19-0.22,0.21-0.35c0.05-0.33-0.34-0.54-0.66-0.64
	C343.08,319.81,340.78,319.15,338.64,318.34z"/>
<path class="st3" d="M366.77,329.28c-0.05,1.96,0.14,3.92,0.55,5.83c0.09,0.4,0.29,0.89,0.7,0.89c1.2-1.61,2.23-3.35,3.05-5.18
	c0.07-0.15,0.14-0.32,0.1-0.48c-0.06-0.26-0.36-0.37-0.61-0.45C369.25,329.52,367.89,329.26,366.77,329.28z"/>
<path class="st3" d="M374.73,331.15c0.31,3.45,0.62,6.95,1.85,10.19c0.05,0.14,0.12,0.3,0.27,0.36c0.23,0.1,0.47-0.14,0.61-0.34
	c1.5-2.1,2.93-4.25,4.28-6.44c0.24-0.39,0.49-0.81,0.5-1.27c0.03-0.8-0.68-1.48-1.44-1.72c-0.77-0.25-1.59-0.19-2.4-0.2
	C376.94,331.68,375.49,331.38,374.73,331.15z"/>
<path class="st3" d="M391.88,336.58c0.23,1.21,0.47,2.42,0.7,3.63c0.1,0.52,0.28,1.13,0.78,1.29c1.32-1.5,2.37-3.23,3.08-5.1
	c-1.1-0.44-2.35-0.47-3.47-0.08C392.47,336.49,391.89,336.73,391.88,336.58z"/>
<path class="st3" d="M401.25,337.48c0.42,0.68-0.02,1.77,0.64,2.22c0.43,0.29,1.05,0.03,1.33-0.4s0.31-0.98,0.32-1.5
	C402.57,337.5,401.6,337.18,401.25,337.48z"/>
<rect x="437.27" y="81.55" class="st4" width="1029.67" height="340.66"/>
<text transform="matrix(1 0 0 1 437.2693 406.7724)" class="st5 st6 st7">FURD</text>
</svg>
