<?xml version="1.0" encoding="utf-8"?>
<!-- Generator: Adobe Illustrator 28.3.0, SVG Export Plug-In . SVG Version: 6.00 Build 0)  -->
<svg version="1.1" xmlns="http://www.w3.org/2000/svg" xmlns:xlink="http://www.w3.org/1999/xlink" x="0px" y="0px"
	 viewBox="0 0 16 16" style="enable-background:new 0 0 16 16;" xml:space="preserve">
<style type="text/css">
	.st0{fill:#27368C;}
	.st1{fill:#FFFFFF;}
	.st2{fill:none;stroke:#FFFFFF;stroke-width:0.2046;stroke-linecap:round;stroke-miterlimit:10;}
	.st3{fill:none;stroke:#FFFFFF;stroke-width:0.3069;stroke-linecap:round;stroke-miterlimit:10;}
</style>
<g id="Layer_1">
</g>
<g id="Layer_2">
</g>
<g id="Layer_3">
</g>
<g id="Layer_4">
</g>
<g id="Layer_5">
</g>
<g id="Layer_6">
	<g>
		<path class="st0" d="M4.34,8.83C4.16,8.73,4.18,8.78,4,8.68c-0.08-0.04-0.21-0.3-0.23-0.38C3.74,8.21,3.77,8.03,3.82,7.95
			c0.2-0.34,0.43-0.36,0.75-0.59c0.43-0.32,0.74-0.77,1.12-1.15c0.64-0.64,1.56-1.08,2.45-0.89c0.5,0.1,0.94,0.39,1.33,0.71
			S10.23,6.71,10.65,7c0.26,0.18,0.54,0.32,0.79,0.52c0.16,0.12,0.31,0.28,0.3,0.48c-0.02,0.26-0.31,0.4-0.52,0.56
			c-0.26,0.2-0.43,0.49-0.64,0.74c-0.5,0.6-1.23,0.95-1.99,1.14c-0.56,0.14-1.15,0.2-1.72,0.11S5.76,10.2,5.34,9.81
			C4.98,9.46,4.71,9.04,4.34,8.83z"/>
		<path class="st1" d="M4.88,8.5C4.74,8.54,4.6,8.41,4.59,8.27C4.58,8.13,4.67,8,4.78,7.91C4.89,7.83,5.02,7.77,5.14,7.7
			C5.51,7.49,5.78,7.13,6.1,6.86C6.54,6.49,7.1,6.27,7.66,6.25c0.57-0.03,1.14,0.14,1.61,0.46c0.21,0.15,0.4,0.33,0.62,0.47
			c0.21,0.13,0.43,0.23,0.66,0.33c0.11,0.05,0.23,0.11,0.31,0.2c0.08,0.09,0.13,0.23,0.09,0.34c-0.07,0.17-0.28,0.22-0.42,0.32
			c-0.11,0.07-0.19,0.18-0.27,0.28C9.87,9.11,9.33,9.4,8.79,9.64C8.6,9.72,8.4,9.81,8.19,9.85C7.81,9.93,7.41,9.89,7.03,9.81
			C6.81,9.76,6.59,9.7,6.39,9.6c-0.5-0.26-0.84-0.76-1.32-1.05C5,8.5,4.95,8.49,4.88,8.5z"/>
		<path class="st0" d="M6.87,6.27C6.56,6.42,6.35,6.74,6.23,7.07C6.07,7.53,6.06,8.05,6.21,8.52c0.04,0.13,0.09,0.25,0.17,0.37
			c0.15,0.23,0.38,0.39,0.63,0.49s0.53,0.12,0.8,0.11C8,9.47,8.19,9.44,8.37,9.37c0.33-0.14,0.6-0.42,0.77-0.74
			C9.31,8.31,9.38,7.94,9.4,7.58c0.01-0.1,0.01-0.21-0.01-0.31C9.36,7.13,9.3,7.01,9.24,6.89c-0.07-0.14-0.14-0.28-0.24-0.4
			c-0.1-0.11-0.23-0.2-0.37-0.26c-0.3-0.14-0.65-0.17-0.98-0.14C7.33,6.12,7,6.21,6.87,6.27z"/>
		<path class="st0" d="M15.36,4.66c-0.07-0.09-0.15-0.17-0.22-0.26"/>
		<path class="st0" d="M6.88,5.84C6.4,4.8,5.91,3.74,5.79,2.6C5.75,2.19,5.76,1.76,5.9,1.38c0.14-0.39,0.42-0.74,0.81-0.89
			c0.61-0.23,1.28,0.08,1.93,0.03c0.54-0.04,1.1-0.32,1.61-0.12c0.38,0.14,0.62,0.53,0.7,0.93s0.01,0.81-0.07,1.2
			c-0.27,1.3-0.74,2.58-1.57,3.61"/>
		<path class="st0" d="M6.99,10.27c-0.22,0.77-0.44,1.55-0.65,2.32c-0.12,0.43-0.24,0.86-0.27,1.3s0.04,0.9,0.28,1.28
			c0.24,0.37,0.66,0.64,1.1,0.62c0.32-0.02,0.61-0.17,0.93-0.17c0.36,0,0.72,0.2,1.07,0.15c0.37-0.05,0.65-0.38,0.77-0.73
			c0.11-0.35,0.09-0.74,0.06-1.11c-0.1-1.04-0.29-2.06-0.47-3.09c-0.05-0.25-0.1-0.53-0.3-0.69c-0.05-0.04-0.12-0.08-0.19-0.08
			c-0.09-0.01-0.17,0.04-0.25,0.07c-0.48,0.2-1.01,0.16-1.53,0.12C7.32,10.23,7.11,10.21,6.99,10.27z"/>
		<path class="st0" d="M9.22,6.07C9.03,5.95,9.03,5.66,9.16,5.48s0.33-0.29,0.52-0.41c0.44-0.26,0.82-0.61,1.14-1.01
			c0.36-0.45,0.63-0.97,1.05-1.36c0.43-0.38,1.09-0.6,1.58-0.29c0.43,0.27,0.57,0.84,0.93,1.21c0.36,0.36,0.96,0.55,1.07,1.05
			c0.05,0.23-0.03,0.47-0.16,0.67c-0.13,0.19-0.32,0.35-0.5,0.5c-0.54,0.45-1.09,0.89-1.71,1.23c-0.62,0.33-1.32,0.56-2.02,0.52
			c-0.14-0.01-0.31-0.05-0.33-0.19"/>
		<path class="st0" d="M-1.2,7.53"/>
		<path class="st0" d="M4.91,7.45C4.96,7.29,4.86,7.1,4.71,7c-0.15-0.1-0.33-0.13-0.5-0.15C3.69,6.79,3.17,6.76,2.65,6.73
			C2.28,6.71,1.91,6.69,1.54,6.71C1.32,6.73,1.1,6.76,0.9,6.84c-0.46,0.2-0.75,0.73-0.68,1.22c0.04,0.31,0.22,0.6,0.26,0.91
			c0.04,0.29-0.04,0.58-0.01,0.86c0.03,0.26,0.14,0.51,0.32,0.7c0.26,0.27,0.64,0.41,1.02,0.43c0.38,0.02,0.75-0.05,1.12-0.15
			c0.31-0.08,0.61-0.18,0.9-0.29c0.47-0.18,0.94-0.4,1.3-0.75C5.18,9.74,5.22,9.7,5.24,9.64c0.02-0.08-0.01-0.17-0.07-0.24
			C5.11,9.34,5.03,9.3,4.95,9.26C4.69,9.11,4.44,8.93,4.3,8.67S4.15,8.05,4.35,7.83c0.08-0.09,0.17-0.15,0.27-0.21
			C4.73,7.55,4.85,7.48,4.91,7.45z"/>
		<path class="st0" d="M7.46,10.68c-0.6-0.48-1.31-0.81-2.07-0.97C5.3,9.69,5.21,9.68,5.12,9.69C5,9.72,4.91,9.79,4.81,9.86
			c-0.28,0.21-0.56,0.43-0.84,0.64c-0.39,0.3-0.79,0.6-1.13,0.95c-0.26,0.26-0.49,0.56-0.6,0.92c-0.11,0.35-0.06,0.77,0.18,1.04
			c0.2,0.23,0.51,0.33,0.75,0.52c0.32,0.26,0.53,0.68,0.92,0.81c0.19,0.06,0.41,0.05,0.61,0.01c0.37-0.06,0.74-0.17,1.05-0.39
			c0.35-0.26,0.58-0.64,0.8-1.02c0.43-0.75,0.88-1.52,0.94-2.38C7.49,10.85,7.46,10.71,7.46,10.68z"/>
		<path class="st0" d="M5.26,6.93c-0.04,0.12-0.17,0.2-0.3,0.21C4.83,7.15,4.7,7.1,4.58,7.06c-1.03-0.38-2-1.02-2.56-1.95
			C1.89,4.89,1.78,4.66,1.75,4.41c-0.07-0.55,0.27-1.1,0.75-1.38c0.16-0.1,0.34-0.17,0.49-0.29c0.27-0.23,0.37-0.63,0.68-0.81
			c0.23-0.14,0.53-0.11,0.79-0.01c0.31,0.12,0.57,0.34,0.82,0.56C5.52,2.71,5.77,2.96,6,3.22c0.27,0.3,0.52,0.61,0.72,0.95
			c0.2,0.33,0.35,0.72,0.26,1.09C6.9,5.56,6.65,5.8,6.42,6.02C6.05,6.36,5.68,6.7,5.26,6.93z"/>
		<path class="st0" d="M11.12,7.83c-0.1-0.19-0.18-0.46-0.01-0.58c0.06-0.05,0.15-0.05,0.22-0.06c0.83-0.07,1.67-0.01,2.47-0.2
			c0.27-0.07,0.54-0.16,0.82-0.19c0.28-0.03,0.58,0.02,0.8,0.2c0.11,0.09,0.19,0.22,0.25,0.35c0.14,0.3,0.17,0.65,0.09,0.97
			c-0.07,0.29-0.22,0.55-0.23,0.85c-0.02,0.35,0.17,0.7,0.09,1.04c-0.07,0.33-0.39,0.57-0.72,0.65c-0.33,0.08-0.68,0.02-1.01-0.06
			c-1.07-0.26-2.08-0.74-2.95-1.41c-0.1-0.08-0.2-0.16-0.25-0.27c-0.11-0.24,0.02-0.51,0.16-0.74S11.16,7.9,11.12,7.83z"/>
		<path class="st0" d="M1.05,14.21c0.03,0.03,0.06,0.05,0.08,0.08"/>
		<path class="st0" d="M10.54,9.03c0.13-0.16,0.37-0.21,0.57-0.18c0.21,0.04,0.39,0.16,0.56,0.28C12,9.39,12.28,9.69,12.6,9.95
			c0.36,0.3,0.76,0.55,1.11,0.85c0.36,0.3,0.68,0.66,0.8,1.1c0.13,0.43,0.03,0.95-0.33,1.24c-0.25,0.21-0.6,0.28-0.88,0.45
			c-0.28,0.16-0.49,0.41-0.74,0.62c-0.25,0.21-0.55,0.38-0.88,0.36c-0.33-0.02-0.6-0.24-0.8-0.48c-0.6-0.7-0.79-1.62-1.17-2.44
			c-0.23-0.49-0.53-1.01-0.37-1.53C9.51,9.59,10.22,9.43,10.54,9.03z"/>
		<path class="st2" d="M4.11,5.11C4.46,5.38,4.8,5.67,5.13,5.96"/>
		<path class="st2" d="M4.46,3.65c0.48,0.61,0.94,1.23,1.38,1.87"/>
		<path class="st2" d="M7.88,4.93C7.85,4.59,7.83,4.25,7.82,3.9"/>
		<path class="st2" d="M8.65,5.21c0.19-0.79,0.41-1.57,0.64-2.34"/>
		<path class="st2" d="M10.77,6.01c0.22-0.19,0.43-0.4,0.63-0.61"/>
		<path class="st2" d="M11.28,6.56c0.59-0.39,1.19-0.77,1.81-1.12"/>
		<path class="st2" d="M3.98,8.18C3.65,8.16,3.33,8.16,3,8.17"/>
		<path class="st2" d="M4.19,9.03C3.55,9.22,2.92,9.41,2.28,9.6"/>
		<path class="st2" d="M5.66,10.46c-0.17,0.19-0.34,0.38-0.52,0.56"/>
		<path class="st2" d="M6.33,10.87c-0.46,0.72-0.93,1.44-1.4,2.15"/>
		<path class="st2" d="M7.68,11.29c-0.03,0.21-0.05,0.42-0.08,0.63"/>
		<path class="st2" d="M8.4,11.29c0.1,0.74,0.17,1.49,0.22,2.24"/>
		<path class="st2" d="M10.25,10.53c0.1,0.15,0.2,0.31,0.3,0.46"/>
		<path class="st2" d="M10.76,10.14c0.48,0.46,0.96,0.92,1.44,1.38"/>
		<path class="st3" d="M14.51,15.62"/>
		<path class="st2" d="M12.24,8.3c0.18,0.01,0.36,0.01,0.55,0.02"/>
		<path class="st2" d="M11.85,8.87c0.63,0.17,1.27,0.32,1.91,0.46"/>
	</g>
</g>
</svg>
